<svg xmlns="http://www.w3.org/2000/svg" fill="none" viewBox="0 0 1000 1000">
	<style>
		.border {stroke:#000}
		.text {fill:#000}
		@media (prefers-color-scheme: dark) {
			.border {stroke:#fff}
			.text {fill:#fff}
		}
    </style>
	<rect class="border" width="930" height="930" x="35" y="35" stroke-width="70" rx="200"/>
	<path class="text" d="M159.9 342.95c0 17.83 14.65 30.52 32.23 30.52s31.98-12.7 31.98-30.52-14.4-30.76-31.98-30.76-32.23 12.94-32.23 30.76zM165.03 664h54.2V405.94h-54.2V664zM557.6 521.67V476c0-94.48-52.97-151.85-138.42-151.85-84.96 0-138.92 57.13-138.92 151.85v45.66c0 94.23 52.98 148.92 138.43 148.92 85.2 0 138.92-54.69 138.92-148.92zm-56.15-46.15v46.15c0 69.09-35.15 101.8-82.52 101.8-47.36 0-82.76-32.71-82.76-101.8v-46.15c0-68.84 35.4-104 82.76-104 47.37 0 82.52 35.16 82.52 104zM596.42 571.47c1.23 44.92 32.23 99.12 125 99.12 75.44 0 128.42-36.86 128.42-102.3 0-56.63-38.08-80.31-88.13-92.52l-54.45-13.43c-31-7.08-46.14-22.7-46.14-44.43 0-31.01 25.88-49.08 63.97-49.08 43.2 0 64.94 23.44 67.38 51.76h53.22c-1.22-62.25-55.17-97.17-119.87-97.17s-120.36 34.92-120.36 98.64c0 54.2 38.57 79.83 81.54 89.84l54.69 13.67c35.64 8.55 52.73 22.22 52.73 47.61 0 31.5-25.63 51.76-68.85 51.76-47.12 0-72.5-24.66-74.95-53.47h-54.2z"/>
	<path class="gloss" fill="url(#paint0_linear)" d="M0 0h1000v375.66S875 500 500 500 0 375.66 0 375.66V0z"/>
</svg>
