<?xml version="1.0" standalone="no"?>
<!DOCTYPE svg PUBLIC "-//W3C//DTD SVG 20010904//EN"
 "http://www.w3.org/TR/2001/REC-SVG-20010904/DTD/svg10.dtd">
<svg version="1.0" xmlns="http://www.w3.org/2000/svg"
 width="1000.000000pt" height="1000.000000pt" viewBox="0 0 1000.000000 1000.000000"
 preserveAspectRatio="xMidYMid meet">
<metadata>
Created by potrace 1.14, written by Peter Selinger 2001-2017
</metadata>
<g transform="translate(0.000000,1000.000000) scale(0.100000,-0.100000)"
fill="#000000" stroke="none">
<path d="M1805 9989 c-462 -58 -884 -266 -1212 -596 -322 -325 -526 -745 -583
-1203 -7 -57 -10 -1089 -10 -3197 0 -3423 -4 -3200 60 -3450 214 -827 899
-1427 1750 -1533 57 -7 1089 -10 3197 -10 3423 0 3200 -4 3450 60 827 214
1427 899 1533 1750 7 57 10 1085 10 3187 0 2726 -2 3116 -15 3220 -121 932
-861 1658 -1805 1773 -106 13 -6272 12 -6375 -1z m6406 -716 c431 -95 774
-363 953 -744 53 -112 79 -190 109 -324 l22 -100 0 -3095 c0 -2892 -1 -3101
-17 -3186 -54 -283 -182 -528 -378 -724 -196 -196 -441 -324 -720 -377 -90
-17 -256 -18 -3180 -18 -2883 0 -3091 1 -3176 17 -283 54 -528 182 -724 378
-196 196 -324 441 -377 720 -17 90 -18 256 -18 3190 l0 3095 22 101 c64 289
177 500 373 694 58 58 144 131 191 162 183 123 399 203 609 227 41 5 1457 8
3145 7 l3070 -2 96 -21z"/>
<path d="M1806 6861 c-138 -56 -206 -153 -206 -293 0 -95 28 -156 100 -221
162 -146 425 -96 516 98 37 77 34 182 -7 263 -34 68 -67 100 -143 139 -70 36
-189 42 -260 14z"/>
<path d="M7110 6763 c-247 -24 -463 -95 -634 -206 -157 -103 -256 -213 -332
-372 -70 -145 -87 -223 -87 -405 0 -184 17 -263 87 -405 77 -156 205 -281 378
-371 136 -70 192 -87 597 -189 208 -52 411 -106 452 -121 239 -85 354 -208
366 -393 17 -246 -130 -434 -402 -513 -72 -21 -101 -23 -280 -23 -179 0 -208
2 -279 23 -247 71 -417 235 -456 440 l-13 62 -275 0 -275 0 7 -69 c38 -381
278 -693 638 -828 320 -121 755 -136 1114 -39 424 115 703 395 769 773 41 237
-1 499 -107 667 -47 75 -153 181 -233 236 -168 113 -291 157 -788 280 -348 86
-414 105 -493 145 -184 91 -270 242 -243 429 16 113 45 173 118 247 75 75 153
117 276 150 66 18 108 22 235 22 127 0 169 -4 235 -22 112 -30 195 -73 264
-137 94 -86 148 -188 166 -309 l7 -45 269 0 269 0 0 34 c0 62 -30 205 -60 287
-129 354 -490 598 -962 649 -91 9 -249 11 -328 3z"/>
<path d="M4010 6754 c-19 -3 -73 -12 -120 -20 -605 -108 -995 -555 -1075
-1234 -18 -150 -21 -797 -4 -948 75 -695 447 -1120 1082 -1239 133 -24 455
-24 592 1 519 95 876 413 1020 911 59 203 67 279 72 693 7 523 -11 705 -92
948 -133 400 -401 680 -778 813 -157 55 -261 72 -472 76 -104 2 -206 1 -225
-1z m410 -504 c247 -71 436 -265 525 -537 52 -162 58 -218 62 -623 3 -245 1
-424 -6 -491 -45 -432 -260 -722 -596 -806 -101 -25 -335 -24 -430 1 -332 88
-542 356 -594 761 -6 44 -11 251 -12 460 -1 298 2 401 14 480 67 431 286 695
637 770 96 21 304 13 400 -15z"/>
<path d="M1650 4650 l0 -1290 275 0 275 0 0 1290 0 1290 -275 0 -275 0 0
-1290z"/>
</g>
</svg>
